<svg xmlns="http://www.w3.org/2000/svg" viewBox="0 0 512 512" width="512" height="512">
  <defs>
    <linearGradient id="tile" x1="0.15" y1="0" x2="0.85" y2="1">
      <stop offset="0" stop-color="#1C1C2A"/>
      <stop offset="0.55" stop-color="#111119"/>
      <stop offset="1" stop-color="#08080D"/>
    </linearGradient>
    <radialGradient id="bloom" cx="0.5" cy="0.5" r="0.5">
      <stop offset="0" stop-color="#7C4DFF" stop-opacity="0.34"/>
      <stop offset="0.55" stop-color="#5B5BF0" stop-opacity="0.10"/>
      <stop offset="1" stop-color="#5B5BF0" stop-opacity="0"/>
    </radialGradient>
    <linearGradient id="topSheen" x1="0" y1="0" x2="0" y2="1">
      <stop offset="0" stop-color="#FFFFFF" stop-opacity="0.08"/>
      <stop offset="0.18" stop-color="#FFFFFF" stop-opacity="0"/>
    </linearGradient>
    <linearGradient id="ring" x1="0" y1="0" x2="0" y2="1">
      <stop offset="0" stop-color="#9A86FF"/>
      <stop offset="1" stop-color="#6A54E6"/>
    </linearGradient>
    <linearGradient id="core" x1="0" y1="0" x2="0" y2="1">
      <stop offset="0" stop-color="#8272FF"/>
      <stop offset="1" stop-color="#5E48E0"/>
    </linearGradient>
    <clipPath id="tileClip"><rect width="512" height="512" rx="115"/></clipPath>
  </defs>

  <rect width="512" height="512" rx="115" fill="url(#tile)"/>
  <g clip-path="url(#tileClip)">
    <circle cx="256" cy="256" r="180" fill="url(#bloom)"/>
    <rect width="512" height="512" fill="url(#topSheen)"/>
  </g>
  <rect x="1" y="1" width="510" height="510" rx="114" fill="none" stroke="#3A3A4E" stroke-width="1.5" stroke-opacity="0.6"/>

  <rect x="96" y="96" width="320" height="320" rx="66" fill="none" stroke="#52526A" stroke-width="12"/>
  <rect x="103" y="103" width="306" height="306" rx="59" fill="none" stroke="#7C7C96" stroke-width="1.5" stroke-opacity="0.4"/>

  <circle cx="256" cy="256" r="112" fill="none" stroke="url(#ring)" stroke-width="9" opacity="0.22"/>
  <circle cx="256" cy="256" r="74" fill="none" stroke="url(#ring)" stroke-width="9" opacity="0.5"/>

  <circle cx="256" cy="256" r="58" fill="#7C4DFF" opacity="0.10"/>
  <circle cx="256" cy="256" r="46" fill="#8B6BFF" opacity="0.16"/>
  <circle cx="256" cy="256" r="36" fill="url(#core)"/>
  <circle cx="256" cy="256" r="36" fill="none" stroke="#BCAEFF" stroke-width="1.5" stroke-opacity="0.45"/>
</svg>
